<svg width="40" height="40" viewBox="0 0 40 40" fill="none" xmlns="http://www.w3.org/2000/svg">
<path d="M20 0C16.0444 0 12.1776 1.17298 8.8886 3.37061C5.59962 5.56824 3.03617 8.69181 1.52242 12.3463C0.00866568 16.0009 -0.387401 20.0222 0.384303 23.9018C1.15601 27.7814 3.06082 31.3451 5.85787 34.1421C8.65492 36.9392 12.2186 38.844 16.0982 39.6157C19.9778 40.3874 23.9992 39.9913 27.6537 38.4776C31.3082 36.9638 34.4318 34.4004 36.6294 31.1114C38.827 27.8224 40 23.9556 40 20C40 17.3736 39.4827 14.7728 38.4776 12.3463C37.4725 9.91982 35.9993 7.71504 34.1421 5.85786C32.285 4.00069 30.0802 2.5275 27.6537 1.52241C25.2272 0.517315 22.6264 0 20 0ZM15.4 26.4H10V13.4H15.4C17.74 13.4 19.28 14.62 19.28 16.6C19.3076 17.2652 19.0973 17.9184 18.6868 18.4426C18.2763 18.9667 17.6924 19.3274 17.04 19.46C17.4535 19.4696 17.8606 19.5634 18.2366 19.7358C18.6125 19.9082 18.9494 20.1555 19.2264 20.4625C19.5035 20.7695 19.715 21.1299 19.8481 21.5215C19.9811 21.9131 20.0328 22.3277 20 22.74C20 25.06 18 26.4 15.4 26.4ZM22.5 14.4H28.5V15.4H22.5V14.4ZM30 22.1H23.4V22.38C23.3656 22.6839 23.3968 22.9917 23.4914 23.2825C23.5859 23.5734 23.7418 23.8406 23.9484 24.0661C24.155 24.2917 24.4075 24.4703 24.6889 24.59C24.9704 24.7097 25.2743 24.7677 25.58 24.76C26.0093 24.8267 26.4482 24.7359 26.8158 24.5043C27.1834 24.2727 27.4548 23.916 27.58 23.5H30C29.7845 24.46 29.2227 25.307 28.4221 25.8789C27.6214 26.4508 26.6381 26.7075 25.66 26.6C25.0349 26.6631 24.4036 26.5885 23.8104 26.3814C23.2173 26.1743 22.6767 25.8397 22.2268 25.4012C21.7769 24.9627 21.4285 24.431 21.2062 23.8433C20.9838 23.2557 20.893 22.6265 20.94 22V21.12C20.8975 20.5129 20.9869 19.9039 21.2018 19.3346C21.4168 18.7653 21.7524 18.2492 22.1856 17.8218C22.6187 17.3943 23.1392 17.0656 23.7113 16.8582C24.2834 16.6507 24.8936 16.5695 25.5 16.62C26.1045 16.5813 26.7102 16.6725 27.2764 16.8875C27.8426 17.1025 28.3562 17.4363 28.7826 17.8665C29.209 18.2967 29.5383 18.8132 29.7483 19.3813C29.9583 19.9494 30.0441 20.5559 30 21.16V22.1Z" fill="white"/>
</svg>
