<svg width="48" height="48" viewBox="0 0 48 48" fill="none" xmlns="http://www.w3.org/2000/svg">
<path d="M24.624 23.9568C24.7032 23.928 24.7872 23.9064 24.8712 23.8824C24.6582 23.4104 24.435 22.9431 24.2016 22.4808C19.6896 23.8176 15.3696 23.8296 14.5992 23.8176C14.592 23.8776 14.592 23.94 14.592 24C14.592 26.268 15.408 28.4472 16.8912 30.1584C17.3856 29.3616 20.0064 25.452 24.624 23.9568ZM18.2952 31.4712C19.6005 32.4716 21.1457 33.1116 22.7761 33.3272C24.4065 33.5429 26.065 33.3266 27.5856 32.7C27.1447 30.3068 26.4843 27.9593 25.6128 25.6872C20.5224 27.4872 18.6 30.876 18.2952 31.4712ZM30.132 16.8648C29.0226 15.9119 27.7065 15.2308 26.2879 14.8754C24.8694 14.52 23.3875 14.5002 21.96 14.8176C23.2125 16.5193 24.3518 18.3016 25.3704 20.1528C28.4496 18.9696 29.8416 17.2632 30.132 16.8648ZM23.292 20.7936C22.2575 18.9797 21.1238 17.2242 19.896 15.5352C18.6283 16.1529 17.515 17.0463 16.6375 18.1502C15.76 19.254 15.1406 20.5401 14.8248 21.9144H14.8656C15.84 21.9144 19.3032 21.8352 23.292 20.7936ZM27.6336 25.1904C28.7496 28.2936 29.2632 30.8712 29.4096 31.6968C31.4549 30.2548 32.8439 28.0595 33.2712 25.5936C32.0283 25.2406 30.7424 25.0621 29.4504 25.0632C28.8312 25.0632 28.2192 25.1064 27.6336 25.1904ZM24 0.960007C11.2752 0.960007 0.959961 11.2752 0.959961 24C0.959961 36.7248 11.2752 47.04 24 47.04C36.7248 47.04 47.04 36.7248 47.04 24C47.04 11.2752 36.7248 0.960007 24 0.960007ZM24 35.2728C21.0106 35.2703 18.1443 34.0819 16.03 31.9686C13.9157 29.8552 12.7262 26.9894 12.7224 24C12.7249 21.0098 13.9139 18.1428 16.0283 16.0283C18.1427 13.9139 21.0097 12.7249 24 12.7224C26.9896 12.7262 29.8556 13.9157 31.9694 16.0299C34.0831 18.1441 35.272 21.0104 35.2752 24C35.272 26.9892 34.083 29.855 31.9691 31.9684C29.8552 34.0819 26.9891 35.2703 24 35.2728ZM26.2128 21.7776C26.4216 22.2096 26.616 22.6344 26.7936 23.052L26.964 23.46C27.6288 23.3808 28.3392 23.3424 29.0808 23.3424C30.5313 23.3453 31.9783 23.4835 33.4032 23.7552C33.3484 21.711 32.6307 19.7401 31.3584 18.1392C30.9744 18.6336 29.3952 20.4504 26.2128 21.7776Z" fill="white"/>
</svg>
