<svg width="21" height="17" viewBox="0 0 21 17" fill="none" xmlns="http://www.w3.org/2000/svg">
<path d="M17.5172 4.84453C16.4438 2.01328 13.7086 0 10.5047 0C7.30078 0 4.56562 2.01094 3.49219 4.84219C1.48359 5.36953 0 7.2 0 9.375C0 11.9648 2.09766 14.0625 4.68516 14.0625H5.625C5.72813 14.0625 5.8125 13.9781 5.8125 13.875V12.4688C5.8125 12.3656 5.72813 12.2812 5.625 12.2812H4.68516C3.89531 12.2812 3.15234 11.9672 2.59922 11.3977C2.04844 10.8305 1.75547 10.0664 1.78125 9.27422C1.80234 8.65547 2.01328 8.07422 2.39531 7.58438C2.78672 7.08516 3.33516 6.72187 3.94453 6.56016L4.83281 6.32812L5.15859 5.47031C5.36016 4.93594 5.64141 4.43672 5.99531 3.98438C6.3447 3.53603 6.75857 3.14191 7.22344 2.81484C8.18672 2.1375 9.32109 1.77891 10.5047 1.77891C11.6883 1.77891 12.8227 2.1375 13.7859 2.81484C14.2523 3.14297 14.6648 3.53672 15.0141 3.98438C15.368 4.43672 15.6492 4.93828 15.8508 5.47031L16.1742 6.32578L17.0602 6.56016C18.3305 6.90234 19.2188 8.05781 19.2188 9.375C19.2188 10.1508 18.9164 10.882 18.368 11.4305C18.099 11.701 17.7791 11.9155 17.4266 12.0615C17.0742 12.2076 16.6963 12.2823 16.3148 12.2812H15.375C15.2719 12.2812 15.1875 12.3656 15.1875 12.4688V13.875C15.1875 13.9781 15.2719 14.0625 15.375 14.0625H16.3148C18.9023 14.0625 21 11.9648 21 9.375C21 7.20234 19.5211 5.37422 17.5172 4.84453Z" fill="white"/>
<path d="M13.125 12.8039H11.3883V7.125C11.3883 7.02187 11.3039 6.9375 11.2008 6.9375H9.79454C9.69142 6.9375 9.60704 7.02187 9.60704 7.125V12.8039H7.87501C7.71798 12.8039 7.63126 12.9844 7.72736 13.1063L10.3524 16.4273C10.3699 16.4498 10.3923 16.4679 10.4179 16.4803C10.4435 16.4928 10.4716 16.4993 10.5 16.4993C10.5285 16.4993 10.5566 16.4928 10.5821 16.4803C10.6077 16.4679 10.6301 16.4498 10.6477 16.4273L13.2727 13.1063C13.3688 12.9844 13.282 12.8039 13.125 12.8039V12.8039Z" fill="white"/>
</svg>
