<svg width="48" height="48" viewBox="0 0 48 48" fill="none" xmlns="http://www.w3.org/2000/svg">
<path d="M24 0.960007C11.2752 0.960007 0.959961 11.2752 0.959961 24C0.959961 36.7248 11.2752 47.04 24 47.04C36.7248 47.04 47.04 36.7248 47.04 24C47.04 11.2752 36.7248 0.960007 24 0.960007ZM18.36 33.5496H13.6944V18.5352H18.36V33.5496ZM15.9984 16.692C14.5248 16.692 13.572 15.648 13.572 14.3568C13.572 13.0392 14.5536 12.0264 16.0584 12.0264C17.5632 12.0264 18.4848 13.0392 18.5136 14.3568C18.5136 15.648 17.5632 16.692 15.9984 16.692ZM35.4 33.5496H30.7344V25.2288C30.7344 23.292 30.0576 21.9768 28.3704 21.9768C27.0816 21.9768 26.316 22.8672 25.9776 23.724C25.8528 24.0288 25.8216 24.4608 25.8216 24.8904V33.5472H21.1536V23.3232C21.1536 21.4488 21.0936 19.8816 21.0312 18.5328H25.0848L25.2984 20.6184H25.392C26.0064 19.6392 27.5112 18.1944 30.0288 18.1944C33.0984 18.1944 35.4 20.2512 35.4 24.672V33.5496Z" fill="white"/>
</svg>
